<svg width="48" height="48" viewBox="0 0 48 48" fill="none" xmlns="http://www.w3.org/2000/svg">
<circle cx="24" cy="24" r="23" stroke="black" stroke-width="2"/>
<path d="M23.768 18.768C23.272 18.768 22.872 18.616 22.568 18.312C22.264 17.992 22.112 17.584 22.112 17.088C22.112 16.592 22.264 16.192 22.568 15.888C22.872 15.584 23.272 15.432 23.768 15.432C24.248 15.432 24.648 15.584 24.968 15.888C25.288 16.192 25.448 16.592 25.448 17.088C25.448 17.584 25.288 17.992 24.968 18.312C24.648 18.616 24.248 18.768 23.768 18.768ZM20.552 21.504V20.832H25.16V30.984C25.16 31.528 25.184 31.856 25.232 31.968C25.28 32.064 25.432 32.128 25.688 32.16L27.008 32.328V33H20.552V32.328L21.872 32.16C22.128 32.128 22.28 32.064 22.328 31.968C22.376 31.856 22.4 31.528 22.4 30.984V22.848C22.4 22.304 22.376 21.984 22.328 21.888C22.28 21.776 22.128 21.704 21.872 21.672L20.552 21.504Z" fill="black"/>
</svg>
